<?xml version="1.0" encoding="UTF-8"?>
<!DOCTYPE svg PUBLIC "-//W3C//DTD SVG 1.1//EN" "http://www.w3.org/Graphics/SVG/1.1/DTD/svg11.dtd">
<svg version="1.1" xmlns="http://www.w3.org/2000/svg" xmlns:xlink="http://www.w3.org/1999/xlink" x="0" y="0" width="120" height="120" viewBox="0, 0, 120, 120">
  <defs>
    <linearGradient id="Gradient_1" gradientUnits="userSpaceOnUse" x1="19.06" y1="12.25" x2="113.51" y2="86.44" gradientTransform="matrix(1, 0, 0, 1, 0, 39)">
      <stop offset="0" stop-color="#12598C"/>
      <stop offset="0.29" stop-color="#1A5486"/>
      <stop offset="0.7" stop-color="#214978"/>
      <stop offset="0.98" stop-color="#273D6C"/>
    </linearGradient>
    <linearGradient id="Gradient_2" gradientUnits="userSpaceOnUse" x1="29.04" y1="5.75" x2="83.5" y2="74.87" gradientTransform="matrix(1, 0, 0, 1, 0, 39)">
      <stop offset="0" stop-color="#12598C"/>
      <stop offset="0.29" stop-color="#1A5486"/>
      <stop offset="0.7" stop-color="#214978"/>
      <stop offset="0.98" stop-color="#273D6C"/>
    </linearGradient>
  </defs>
  <g id="Layer_2">
    <path d="M110.34,39.22 L9.31,39.22 L0,48.54 L0,120 L120,120 L120,48.54 z" fill="url(#Gradient_1)"/>
    <path d="M109.87,40.39 L118.87,49.12 L118.87,119 L1.05,119 L1.05,49 L9.78,40.39 z" fill="#FFFFFF"/>
    <path d="M108.48,42 L101.38,42 C99.724,63.822 81.535,80.683 59.65,80.683 C37.765,80.683 19.576,63.822 17.92,42 L11.17,42 L2.79,50.4 L2.79,117.09 L116.79,117.09 L116.79,50.4 z" fill="url(#Gradient_2)"/>
    <path d="M59.83,78.68 C38.103,78.68 20.49,61.067 20.49,39.34 C20.49,17.613 38.103,-0 59.83,-0 C81.557,-0 99.17,17.613 99.17,39.34 C99.159,61.062 81.552,78.669 59.83,78.68 z" fill="#273D6C"/>
    <path d="M59.83,3.26 C39.904,3.26 23.75,19.414 23.75,39.34 C23.75,59.266 39.904,75.42 59.83,75.42 C79.756,75.42 95.91,59.266 95.91,39.34 C95.888,19.423 79.747,3.282 59.83,3.26 z" fill="#FFFFFF"/>
    <path d="M59.24,9.43 L60.41,9.43 L60.41,11.64 L59.24,11.64 z" fill="#E6F5FE"/>
    <path d="M59.24,18.27 L60.41,18.27 L60.41,20.48 L59.24,20.48 z" fill="#E6F5FE"/>
    <path d="M59.24,22.7 L60.41,22.7 L60.41,23.86 L59.24,23.86 z" fill="#E6F5FE"/>
    <path d="M77.52,38.64 L79.73,38.64 L79.73,39.81 L77.52,39.81 z" fill="#E6F5FE"/>
    <path d="M81.94,38.64 L84.15,38.64 L84.15,39.81 L81.94,39.81 z" fill="#E6F5FE"/>
    <path d="M90.67,38.64 L92.88,38.64 L92.88,39.81 L90.67,39.81 z" fill="#E6F5FE"/>
    <path d="M74.14,38.64 L75.31,38.64 L75.31,39.81 L74.14,39.81 z" fill="#E6F5FE"/>
    <path d="M59.24,58 L60.41,58 L60.41,60.22 L59.24,60.22 z" fill="#E6F5FE"/>
    <path d="M59.24,66.69 L60.41,66.69 L60.41,68.9 L59.24,68.9 z" fill="#E6F5FE"/>
    <path d="M59.24,54.59 L60.41,54.59 L60.41,55.75 L59.24,55.75 z" fill="#E6F5FE"/>
    <path d="M31.08,38.64 L33.29,38.64 L33.29,39.81 L31.08,39.81 z" fill="#E6F5FE"/>
    <path d="M26.77,38.64 L29,38.64 L29,39.81 L26.77,39.81 z" fill="#E6F5FE"/>
    <path d="M39.92,38.64 L42.13,38.64 L42.13,39.81 L39.92,39.81 z" fill="#E6F5FE"/>
    <path d="M35.5,38.64 L37.71,38.64 L37.71,39.81 L35.5,39.81 z" fill="#E6F5FE"/>
    <path d="M44.35,38.64 L45.51,38.64 L45.51,39.81 L44.35,39.81 z" fill="#E6F5FE"/>
    <path d="M86.36,62 C91.823,55.65 94.837,47.557 94.86,39.18 C94.857,30.839 91.838,22.78 86.36,16.49 L86.36,14.92 C85.69,14.19 84.98,13.48 84.25,12.8 L82.64,12.8 C76.332,7.36 68.27,4.384 59.94,4.42 C51.618,4.426 43.57,7.397 37.24,12.8 L35.4,12.8 C34.75,13.4 34.13,14.03 33.52,14.68 L33.52,16.53 C22.189,29.626 22.189,49.054 33.52,62.15 L33.52,64 C34.09,64.6 34.68,65.19 35.28,65.75 L37.13,65.75 C50.165,77.243 69.715,77.243 82.75,65.75 L84.37,65.75 C85.06,65.11 85.72,64.44 86.37,63.75 z M86.36,39.65 L88.46,39.65 L88.46,38.53 L86.36,38.53 L86.36,18.27 C91.153,24.242 93.742,31.683 93.69,39.34 C93.667,46.985 91.086,54.402 86.36,60.41 z M33.52,60.18 C28.753,54.221 26.166,46.811 26.19,39.18 C26.215,31.539 28.795,24.125 33.52,18.12 z M59.24,5.47 L59.24,7.22 L60.41,7.22 L60.41,5.47 C67.865,5.552 75.076,8.133 80.89,12.8 L39,12.8 C44.788,8.254 51.883,5.684 59.24,5.47 z M34.68,13.85 L36.08,13.85 L34.68,15.25 z M34.68,64.48 L34.68,63.2 C35.087,63.66 35.528,64.088 36,64.48 z M60.41,73 L60.41,71.12 L59.24,71.12 L59.24,73 C51.806,72.874 44.631,70.25 38.87,65.55 L81.12,65.55 C75.285,70.352 67.967,72.985 60.41,73 z M85.31,64.5 L84,64.5 C84.453,64.104 84.877,63.676 85.27,63.22 z M82.41,64.5 L60.41,64.5 L60.41,62.39 L59.24,62.39 L59.24,64.48 L37.48,64.48 C36.451,63.571 35.479,62.599 34.57,61.57 L34.57,16.88 C35.51,15.822 36.512,14.82 37.57,13.88 L59.13,13.88 L59.13,16 L60.29,16 L60.29,13.9 L82.17,13.9 C83.228,14.84 84.23,15.842 85.17,16.9 L85.17,61.57 L85.28,61.57 C84.381,62.596 83.423,63.567 82.41,64.48 z M85.31,15.27 L83.92,13.87 L85.31,13.87 z" fill="#E6F5FE"/>
  </g>
</svg>
